<svg width="40" height="41" viewBox="0 0 40 41" fill="none" xmlns="http://www.w3.org/2000/svg">
<path d="M35 32.1892C35.4248 32.1897 35.8334 32.3523 36.1423 32.644C36.4512 32.9356 36.6371 33.3341 36.662 33.7582C36.6869 34.1823 36.5489 34.5998 36.2762 34.9256C36.0036 35.2514 35.6169 35.4607 35.195 35.5109L35 35.5225H5.00003C4.57523 35.5221 4.16664 35.3594 3.85774 35.0678C3.54885 34.7762 3.36297 34.3776 3.33807 33.9536C3.31318 33.5295 3.45115 33.1119 3.7238 32.7862C3.99645 32.4604 4.3832 32.251 4.80503 32.2009L5.00003 32.1892H35ZM31.6667 7.18921C32.5077 7.18894 33.3176 7.50655 33.9343 8.07837C34.5509 8.65019 34.9286 9.43395 34.9917 10.2725L35 10.5225V27.1892C35.0003 28.0302 34.6827 28.8402 34.1109 29.4568C33.539 30.0734 32.7553 30.4511 31.9167 30.5142L31.6667 30.5225H8.33336C7.4924 30.5228 6.68241 30.2052 6.06578 29.6334C5.44914 29.0616 5.07143 28.2778 5.00836 27.4392L5.00003 27.1892V10.5225C4.99976 9.68158 5.31737 8.8716 5.88919 8.25496C6.461 7.63833 7.24477 7.26061 8.08336 7.19754L8.33336 7.18921H31.6667Z" fill="white"/>
<path d="M35 32.1892C35.4248 32.1897 35.8334 32.3523 36.1423 32.644C36.4512 32.9356 36.6371 33.3341 36.662 33.7582C36.6869 34.1823 36.5489 34.5998 36.2762 34.9256C36.0036 35.2514 35.6169 35.4607 35.195 35.5109L35 35.5225H5.00003C4.57523 35.5221 4.16664 35.3594 3.85774 35.0678C3.54885 34.7762 3.36297 34.3776 3.33807 33.9536C3.31318 33.5295 3.45115 33.1119 3.7238 32.7862C3.99645 32.4604 4.3832 32.251 4.80503 32.2009L5.00003 32.1892H35ZM31.6667 7.18921C32.5077 7.18894 33.3176 7.50655 33.9343 8.07837C34.5509 8.65019 34.9286 9.43395 34.9917 10.2725L35 10.5225V27.1892C35.0003 28.0302 34.6827 28.8402 34.1109 29.4568C33.539 30.0734 32.7553 30.4511 31.9167 30.5142L31.6667 30.5225H8.33336C7.4924 30.5228 6.68241 30.2052 6.06578 29.6334C5.44914 29.0616 5.07143 28.2778 5.00836 27.4392L5.00003 27.1892V10.5225C4.99976 9.68158 5.31737 8.8716 5.88919 8.25496C6.461 7.63833 7.24477 7.26061 8.08336 7.19754L8.33336 7.18921H31.6667Z" fill="url(#paint0_linear_93_347)"/>
<defs>
<linearGradient id="paint0_linear_93_347" x1="-8.33017" y1="0.105876" x2="31.891" y2="49.8669" gradientUnits="userSpaceOnUse">
<stop stop-color="#31A2F3"/>
<stop offset="1" stop-color="#2213C4"/>
</linearGradient>
</defs>
</svg>
